<?xml version="1.0" encoding="UTF-8" standalone="no"?>
<svg
   viewBox="0 0 793.70079 1122.5197"
   width="210mm"
   height="297mm"
   version="1.1"
   id="svg480"
   sodipodi:docname="GantryPlate-Pi Attachment.svg"
   inkscape:version="1.1 (c68e22c387, 2021-05-23)"
   xmlns:inkscape="http://www.inkscape.org/namespaces/inkscape"
   xmlns:sodipodi="http://sodipodi.sourceforge.net/DTD/sodipodi-0.dtd"
   xmlns="http://www.w3.org/2000/svg"
   xmlns:svg="http://www.w3.org/2000/svg">
  <sodipodi:namedview
     id="namedview482"
     pagecolor="#ffffff"
     bordercolor="#666666"
     borderopacity="1.0"
     inkscape:pageshadow="2"
     inkscape:pageopacity="0.0"
     inkscape:pagecheckerboard="0"
     showgrid="false"
     inkscape:zoom="1.0230034"
     inkscape:cx="305.96184"
     inkscape:cy="478.49303"
     inkscape:window-width="1920"
     inkscape:window-height="1001"
     inkscape:window-x="-9"
     inkscape:window-y="-9"
     inkscape:window-maximized="1"
     inkscape:current-layer="g478"
     inkscape:document-units="mm"
     units="mm" />
  <desc
     id="desc2">GantryPlate-ModelBody.dxf - scale = 1.0, origin = (0.0, 0.0), method = manual</desc>
  <defs
     id="defs16">
    <marker
       id="DistanceX"
       orient="auto"
       refX="0"
       refY="0"
       style="overflow:visible">
      <path
         d="M 3,-3 -3,3 M 0,-5 V 5"
         style="stroke:#000000;stroke-width:0.5"
         id="path4" />
    </marker>
    <pattern
       id="Hatch"
       patternUnits="userSpaceOnUse"
       width="8"
       height="8"
       x="0"
       y="0">
      <path
         d="M8 4 l-4,4"
         stroke="#000000"
         stroke-width="0.25"
         linecap="square"
         id="path7" />
      <path
         d="M6 2 l-4,4"
         stroke="#000000"
         stroke-width="0.25"
         linecap="square"
         id="path9" />
      <path
         d="M4 0 l-4,4"
         stroke="#000000"
         stroke-width="0.25"
         linecap="square"
         id="path11" />
    </pattern>
    <symbol
       id="*MODEL_SPACE" />
    <symbol
       id="*PAPER_SPACE" />
  </defs>
  <g
     inkscape:groupmode="layer"
     inkscape:label="0"
     id="g18" />
  <g
     inkscape:groupmode="layer"
     inkscape:label="none"
     id="g20" />
  <g
     inkscape:groupmode="layer"
     inkscape:label="Body"
     id="g478">
    <path
       id="rect15003"
       style="fill:none;stroke:#ff0000;stroke-width:0.366305"
       d="m 196.23006,573.81659 h 432.92102 c 5.6109,0 10.12799,5.31791 10.12799,11.92357 v 221.8338 c 0,6.60566 -4.51709,11.92357 -10.12799,11.92357 H 196.23006 c -5.61091,0 -10.12799,-5.31791 -10.12799,-11.92357 v -221.8338 c 0,-6.60566 4.51708,-11.92357 10.12799,-11.92357 z" />
    <path
       style="fill:none;stroke:#000000"
       d="m 368.69966,800.52968 v 0"
       id="path336" />
    <path
       style="fill:none;stroke:#000000"
       d="m 368.69966,800.52968 v 0"
       id="path340" />
    <path
       id="rect13160"
       style="fill:none;stroke:#ff0000;stroke-width:0.377953"
       d="M 87.97625,152.49216 H 276.95263 V 341.46854 H 87.97625 Z" />
    <rect
       style="fill:none;stroke:#ff0000;stroke-width:0.377953;stroke-miterlimit:4;stroke-dasharray:none"
       id="rect13623"
       width="186.70515"
       height="0"
       x="43.010609"
       y="507.32968" />
    <path
       id="path13889"
       style="fill:none;stroke:#ff0000;stroke-width:0.377953"
       d="m 268.81631,605.81422 a 5.131948,5.131948 0 0 1 -5.13195,5.13195 5.131948,5.131948 0 0 1 -5.13195,-5.13195 5.131948,5.131948 0 0 1 5.13195,-5.13195 5.131948,5.131948 0 0 1 5.13195,5.13195 z" />
    <path
       id="path13889-8"
       style="fill:none;stroke:#ff0000;stroke-width:0.377953"
       d="m 488.51257,606.54736 a 5.131948,5.131948 0 0 1 -5.13195,5.13195 5.131948,5.131948 0 0 1 -5.13195,-5.13195 5.131948,5.131948 0 0 1 5.13195,-5.13195 5.131948,5.131948 0 0 1 5.13195,5.13195 z" />
    <path
       id="path13889-0"
       style="fill:none;stroke:#ff0000;stroke-width:0.377953"
       d="m 269.54945,792.27499 a 5.131948,5.131948 0 0 1 -5.13195,5.13195 5.131948,5.131948 0 0 1 -5.13195,-5.13195 5.131948,5.131948 0 0 1 5.13195,-5.13195 5.131948,5.131948 0 0 1 5.13195,5.13195 z" />
    <path
       id="path13889-4"
       style="fill:none;stroke:#ff0000;stroke-width:0.377953"
       d="m 488.51256,791.54186 a 5.131948,5.131948 0 0 1 -5.13195,5.13195 5.131948,5.131948 0 0 1 -5.13195,-5.13195 5.131948,5.131948 0 0 1 5.13195,-5.13195 5.131948,5.131948 0 0 1 5.13195,5.13195 z" />
    <path
       id="rect14064"
       style="fill:none;stroke:#ff0000;stroke-width:0.247483"
       d="m 216.00738,658.83034 c 5.37548,0 9.70303,2.19589 9.70303,4.92352 v 65.49602 c 0,2.72764 -4.32755,4.92353 -9.70303,4.92353 -5.37548,0 -9.70303,-2.19589 -9.70303,-4.92353 v -65.49602 c 0,-2.72763 4.32755,-4.92352 9.70303,-4.92352 z" />
    <path
       id="rect14064-6"
       style="fill:none;stroke:#ff0000;stroke-width:0.247483"
       d="m 609.65982,659.1407 c 5.37548,0 9.70303,2.19589 9.70303,4.92353 v 65.49602 c 0,2.72763 -4.32755,4.92352 -9.70303,4.92352 -5.37548,0 -9.70303,-2.19589 -9.70303,-4.92352 v -65.49602 c 0,-2.72764 4.32755,-4.92353 9.70303,-4.92353 z" />
  </g>
</svg>
