<?xml version="1.0" encoding="UTF-8" standalone="no"?>
<svg
   viewBox="0 0 793.7007874015749 1122.5196850393702"
   width="793.7007874015749"
   height="1122.5196850393702"
   version="1.1"
   id="svg480"
   sodipodi:docname="GantryPlate-LimitSwitchAttachment.svg"
   inkscape:version="1.1 (c68e22c387, 2021-05-23)"
   xmlns:inkscape="http://www.inkscape.org/namespaces/inkscape"
   xmlns:sodipodi="http://sodipodi.sourceforge.net/DTD/sodipodi-0.dtd"
   xmlns="http://www.w3.org/2000/svg"
   xmlns:svg="http://www.w3.org/2000/svg">
  <sodipodi:namedview
     id="namedview482"
     pagecolor="#ffffff"
     bordercolor="#666666"
     borderopacity="1.0"
     inkscape:pageshadow="2"
     inkscape:pageopacity="0.0"
     inkscape:pagecheckerboard="0"
     showgrid="false"
     inkscape:zoom="0.5115017"
     inkscape:cx="520.03738"
     inkscape:cy="669.597"
     inkscape:window-width="1920"
     inkscape:window-height="1001"
     inkscape:window-x="-9"
     inkscape:window-y="-9"
     inkscape:window-maximized="1"
     inkscape:current-layer="g478" />
  <desc
     id="desc2">GantryPlate-ModelBody.dxf - scale = 1.0, origin = (0.0, 0.0), method = manual</desc>
  <defs
     id="defs16">
    <marker
       id="DistanceX"
       orient="auto"
       refX="0.0"
       refY="0.0"
       style="overflow:visible">
      <path
         d="M 3,-3 L -3,3 M 0,-5 L  0,5"
         style="stroke:#000000; stroke-width:0.5"
         id="path4" />
    </marker>
    <pattern
       id="Hatch"
       patternUnits="userSpaceOnUse"
       width="8"
       height="8"
       x="0"
       y="0">
      <path
         d="M8 4 l-4,4"
         stroke="#000000"
         stroke-width="0.25"
         linecap="square"
         id="path7" />
      <path
         d="M6 2 l-4,4"
         stroke="#000000"
         stroke-width="0.25"
         linecap="square"
         id="path9" />
      <path
         d="M4 0 l-4,4"
         stroke="#000000"
         stroke-width="0.25"
         linecap="square"
         id="path11" />
    </pattern>
    <symbol
       id="*MODEL_SPACE" />
    <symbol
       id="*PAPER_SPACE" />
  </defs>
  <g
     inkscape:groupmode="layer"
     inkscape:label="0"
     id="g18" />
  <g
     inkscape:groupmode="layer"
     inkscape:label="none"
     id="g20" />
  <g
     inkscape:groupmode="layer"
     inkscape:label="Body"
     id="g478">
    <path
       style="fill:none;stroke:#000000;stroke-width:0.377953;stroke-miterlimit:4;stroke-dasharray:none"
       d="m 570.90466,433.03968 v 0"
       id="path26" />
    <path
       style="fill:none;stroke:#000000;stroke-width:0.377953;stroke-miterlimit:4;stroke-dasharray:none"
       d="m 570.90466,433.03968 v 0"
       id="path116" />
    <path
       style="fill:none;stroke:#000000;stroke-width:0.377953;stroke-miterlimit:4;stroke-dasharray:none"
       d="m 533.10866,395.24968 v 0"
       id="path118" />
    <path
       style="fill:none;stroke:#000000;stroke-width:0.377953;stroke-miterlimit:4;stroke-dasharray:none"
       d="m 533.10866,395.24968 v 0"
       id="path208" />
    <path
       style="fill:none;stroke:#000000"
       d="m 230.74666,792.09968 v 0"
       id="path240" />
    <path
       style="fill:none;stroke:#000000"
       d="m 230.74666,792.09968 v 0"
       id="path256" />
    <path
       d="m 505.55594,432.29555 a 9.44882,9.44882 0 1 0 -18.89764,0 9.44882,9.44882 0 1 0 18.89764,0 z"
       style="fill:none;stroke:#000000;stroke-width:0.377953;stroke-miterlimit:4;stroke-dasharray:none"
       id="path306" />
    <path
       d="m 249.44731,432.29555 a 9.44882,9.44882 0 1 0 -18.89764,0 9.44882,9.44882 0 1 0 18.89764,0 z"
       style="fill:none;stroke:#000000;stroke-width:0.377953;stroke-miterlimit:4;stroke-dasharray:none"
       id="path308" />
    <path
       style="fill:none;stroke:#000000"
       d="m 368.69966,800.52968 v 0"
       id="path336" />
    <path
       style="fill:none;stroke:#000000"
       d="m 368.69966,800.52968 v 0"
       id="path340" />
    <g
       id="g12833"
       transform="matrix(1,0,0,-1,0,1149.3527)">
      <path
         d="m 558.88409,541.03509 c 4.38349,0 7.93701,-3.55352 7.93701,-7.93701 0,-4.38349 -3.55352,-7.93701 -7.93701,-7.93701 h -25.94205 c -4.38349,0 -7.93701,3.55352 -7.93701,7.93701 0,4.38349 3.55352,7.93701 7.93701,7.93701 0,0 21.55856,0 25.94205,0 z"
         style="fill:none;stroke:#000000;stroke-width:0.377953;stroke-miterlimit:4;stroke-dasharray:none"
         id="path428"
         sodipodi:nodetypes="csccscc" />
      <path
         d="m 596.67936,624.19159 c 4.38619,0 7.94082,-3.55772 7.93701,-7.94391 0.004,-4.38619 -3.55082,-7.94391 -7.93701,-7.94391 h -25.94205 c -4.38618,0 -7.94081,3.55772 -7.937,7.94391 -0.004,4.38619 3.55082,7.94391 7.937,7.94391 0,0 21.55587,0 25.94205,0 z"
         style="fill:none;stroke:#000000;stroke-width:0.377953;stroke-miterlimit:4;stroke-dasharray:none"
         id="path476"
         sodipodi:nodetypes="ccccccc" />
    </g>
    <path
       id="rect4320"
       style="fill:none;stroke:#000000;stroke-width:0.377953;stroke-miterlimit:4;stroke-dasharray:none"
       d="m 239.99849,634.61356 c 5.44403,0 9.82677,5.057 9.82677,11.33858 v 15.11811 c 0,6.28157 -4.38274,11.33858 -9.82677,11.33858 -5.44403,0 -9.82677,-5.05701 -9.82677,-11.33858 v -15.11811 c 0,-6.28158 4.38274,-11.33858 9.82677,-11.33858 z" />
    <path
       id="rect4320-9"
       style="fill:none;stroke:#000000;stroke-width:0.377953;stroke-miterlimit:4;stroke-dasharray:none"
       d="m 498.10712,634.61356 c 5.44403,0 9.82677,5.057 9.82677,11.33858 v 15.11811 c 0,6.28157 -4.38274,11.33858 -9.82677,11.33858 -5.44403,0 -9.82677,-5.05701 -9.82677,-11.33858 v -15.11811 c 0,-6.28158 4.38274,-11.33858 9.82677,-11.33858 z" />
    <path
       id="path5173"
       style="fill:none;stroke:#000000;stroke-width:0.377953"
       d="m 416.74359,689.94019 a 45.113735,45.113735 0 0 1 -45.11374,45.11373 45.113735,45.113735 0 0 1 -45.11373,-45.11373 45.113735,45.113735 0 0 1 45.11373,-45.11374 45.113735,45.113735 0 0 1 45.11374,45.11374 z" />
    <path
       id="path5277"
       style="fill:none;stroke:#000000;stroke-width:0.410316"
       d="m 321.48606,633.57631 a 7.3538951,7.353895 0 0 1 -7.3539,7.3539 7.3538951,7.353895 0 0 1 -7.3539,-7.3539 7.3538951,7.353895 0 0 1 7.3539,-7.3539 7.3538951,7.353895 0 0 1 7.3539,7.3539 z" />
    <path
       id="path5277-6"
       style="fill:none;stroke:#000000;stroke-width:0.410316"
       d="m 438.33839,747.49611 a 7.3539004,7.353895 0 0 1 -7.3539,7.3539 7.3539004,7.353895 0 0 1 -7.3539,-7.3539 7.3539004,7.353895 0 0 1 7.3539,-7.3539 7.3539004,7.353895 0 0 1 7.3539,7.3539 z" />
    <path
       id="path5277-7"
       style="fill:none;stroke:#000000;stroke-width:0.410316"
       d="m 321.03672,747.49611 a 7.3538951,7.353895 0 0 1 -7.3539,7.3539 7.3538951,7.353895 0 0 1 -7.3539,-7.3539 7.3538951,7.353895 0 0 1 7.3539,-7.3539 7.3538951,7.353895 0 0 1 7.3539,7.3539 z" />
    <path
       id="path5277-65"
       style="fill:none;stroke:#000000;stroke-width:0.410316"
       d="m 437.60526,633.12697 a 7.3538951,7.353895 0 0 1 -7.3539,7.3539 7.3538951,7.353895 0 0 1 -7.3539,-7.3539 7.3538951,7.353895 0 0 1 7.3539,-7.3539 7.3538951,7.353895 0 0 1 7.3539,7.3539 z" />
    <path
       id="rect9315-1"
       style="fill:none;stroke:#ff0000;stroke-width:0.248393"
       d="m 609.25593,472.19377 c 3.10885,0 5.61164,4.41334 5.61164,9.89538 v 145.13188 c 0,5.48204 -2.50279,9.89215 -5.61164,9.89538 l -73.92436,0.0769 c -4.72951,0.0769 -8.28303,3.63042 -8.28217,8.29541 l -0.0846,36.55265 -18.41726,19.59595 18.41726,37.52909 0.64739,27.34484 c 0.64739,5.69116 -4.50671,10.81923 -10.90887,10.81923 H 227.79674 c -6.40218,0 -11.55625,-5.12807 -11.55625,-10.81923 V 739.1664 l 18.41725,-37.52909 -18.41725,-19.59595 V 406.43173 c 0,-5.32123 5.15407,-10.4493 11.55625,-10.4493 h 288.90655 c 6.40216,0 11.55626,5.12807 10.90886,11.46335 l -0.2247,56.19114 c -0.0981,4.74239 3.45698,8.30134 8.15724,8.42909 z"
       sodipodi:nodetypes="ssssccccccsscccccsscccs" />
  </g>
</svg>
