<?xml version="1.0" encoding="UTF-8" standalone="no"?>
<svg
   viewBox="0 0 793.70079 1122.5197"
   width="210mm"
   height="297mm"
   version="1.1"
   id="svg480"
   sodipodi:docname="GantryPlate-LimitSwitchBraket.svg"
   inkscape:version="1.1 (c68e22c387, 2021-05-23)"
   xmlns:inkscape="http://www.inkscape.org/namespaces/inkscape"
   xmlns:sodipodi="http://sodipodi.sourceforge.net/DTD/sodipodi-0.dtd"
   xmlns="http://www.w3.org/2000/svg"
   xmlns:svg="http://www.w3.org/2000/svg">
  <sodipodi:namedview
     id="namedview482"
     pagecolor="#ffffff"
     bordercolor="#666666"
     borderopacity="1.0"
     inkscape:pageshadow="2"
     inkscape:pageopacity="0.0"
     inkscape:pagecheckerboard="0"
     showgrid="false"
     inkscape:zoom="1.4467453"
     inkscape:cx="392.60539"
     inkscape:cy="674.96331"
     inkscape:window-width="1920"
     inkscape:window-height="1001"
     inkscape:window-x="-9"
     inkscape:window-y="-9"
     inkscape:window-maximized="1"
     inkscape:current-layer="g478"
     inkscape:document-units="mm"
     units="mm" />
  <desc
     id="desc2">GantryPlate-ModelBody.dxf - scale = 1.0, origin = (0.0, 0.0), method = manual</desc>
  <defs
     id="defs16">
    <marker
       id="DistanceX"
       orient="auto"
       refX="0"
       refY="0"
       style="overflow:visible">
      <path
         d="M 3,-3 -3,3 M 0,-5 V 5"
         style="stroke:#000000;stroke-width:0.5"
         id="path4" />
    </marker>
    <pattern
       id="Hatch"
       patternUnits="userSpaceOnUse"
       width="8"
       height="8"
       x="0"
       y="0">
      <path
         d="M8 4 l-4,4"
         stroke="#000000"
         stroke-width="0.25"
         linecap="square"
         id="path7" />
      <path
         d="M6 2 l-4,4"
         stroke="#000000"
         stroke-width="0.25"
         linecap="square"
         id="path9" />
      <path
         d="M4 0 l-4,4"
         stroke="#000000"
         stroke-width="0.25"
         linecap="square"
         id="path11" />
    </pattern>
    <symbol
       id="*MODEL_SPACE" />
    <symbol
       id="*PAPER_SPACE" />
  </defs>
  <g
     inkscape:groupmode="layer"
     inkscape:label="0"
     id="g18" />
  <g
     inkscape:groupmode="layer"
     inkscape:label="none"
     id="g20" />
  <g
     inkscape:groupmode="layer"
     inkscape:label="Body"
     id="g478">
    <path
       id="rect13160"
       style="fill:none;stroke:#ff0000;stroke-width:0.377953"
       d="M 87.97625,152.49216 H 276.95263 V 341.46854 H 87.97625 Z" />
    <rect
       style="fill:none;stroke:#ff0000;stroke-width:0.377953;stroke-miterlimit:4;stroke-dasharray:none"
       id="rect13623"
       width="186.70515"
       height="0"
       x="43.010609"
       y="507.32968" />
    <path
       id="rect14064"
       style="fill:none;stroke:#ff0000;stroke-width:0.302763"
       d="m 228.22414,532.79946 c 5.36016,0 9.67539,3.29583 9.67539,7.38976 v 98.30354 c 0,4.09393 -4.31523,7.38976 -9.67539,7.38976 -5.36017,0 -9.67539,-3.29583 -9.67539,-7.38976 v -98.30354 c 0,-4.09393 4.31522,-7.38976 9.67539,-7.38976 z" />
    <path
       id="rect14534"
       style="fill:none;stroke:#ff0000;stroke-width:0.377953"
       d="m 112.25477,515.6402 h 128.50394 c 6.28157,0 11.33858,5.05701 11.33858,11.3386 v 124.72438 c 0,6.28158 -5.05701,11.3386 -11.33858,11.3386 H 112.25477 c -6.28158,0 -11.33859,-5.05702 -11.33859,-11.3386 V 526.9788 c 0,-6.28159 5.05701,-11.3386 11.33859,-11.3386 z" />
    <path
       d="m 148.21248,622.98223 c 4.38349,0 7.93701,3.55352 7.93701,7.93701 0,4.38349 -3.55352,7.93701 -7.93701,7.93701 h -25.94205 c -4.38349,0 -7.93701,-3.55352 -7.93701,-7.93701 0,-4.38349 3.55352,-7.93701 7.93701,-7.93701 0,0 21.55856,0 25.94205,0 z"
       style="fill:none;stroke:#000000;stroke-width:0.377953;stroke-miterlimit:4;stroke-dasharray:none"
       id="path428"
       sodipodi:nodetypes="csccscc" />
    <path
       d="m 186.00775,539.82573 c 4.38619,0 7.94082,3.55772 7.93701,7.94391 0.004,4.38619 -3.55082,7.94391 -7.93701,7.94391 H 160.0657 c -4.38618,0 -7.94081,-3.55772 -7.937,-7.94391 -0.004,-4.38619 3.55082,-7.94391 7.937,-7.94391 0,0 21.55587,0 25.94205,0 z"
       style="fill:none;stroke:#000000;stroke-width:0.377953;stroke-miterlimit:4;stroke-dasharray:none"
       id="path476"
       sodipodi:nodetypes="ccccccc" />
  </g>
</svg>
